# xmcd
#
# Track frame offsets:
#	150
#	18587
#	38172
#	52242
#	73507
#	93132
#	108662
#	127287
#	151070
#
# Disc length: 2372 seconds
#
# Revision: 0
# Processed by: cddbd v1.4PL0 Copyright (c) Steve Scherf et al.
# Submitted via: audiograbber 1.80.04
#
DISCID=79094209
DTITLE=Radoslav Lorkovic - High and Dry
DYEAR=1996
DGENRE=Blues
TTITLE0=The Good Goes With the Bad
TTITLE1=High and Dry
TTITLE2=Headin' South
TTITLE3=Closin' Time
TTITLE4=Canadian Highway
TTITLE5=All Your Love
TTITLE6=That Girl of Mine
TTITLE7=Priviledged Pain
TTITLE8=Mountains Into Town
EXTD=
EXTT0=
EXTT1=
EXTT2=
EXTT3=
EXTT4=
EXTT5=
EXTT6=
EXTT7=
EXTT8=
PLAYORDER=
